<svg xmlns="http://www.w3.org/2000/svg" version="1.1" xmlns:xlink="http://www.w3.org/1999/xlink" xmlns:svgjs="http://svgjs.dev/svgjs" width="1000" height="1000" viewBox="0 0 1000 1000"><rect width="1000" height="1000" fill="#ffffff"></rect><g transform="matrix(0.7,0,0,0.7,150,281.25)"><svg viewBox="0 0 512 320" data-background-color="#ffffff" preserveAspectRatio="xMidYMid meet" height="625" width="1000" xmlns="http://www.w3.org/2000/svg" xmlns:xlink="http://www.w3.org/1999/xlink"><g id="tight-bounds" transform="matrix(1,0,0,1,0,0)"><svg viewBox="0 0 512 320" height="320" width="512"><g><svg></svg></g><g><svg viewBox="0 0 512 320" height="320" width="512"><g><path xmlns="http://www.w3.org/2000/svg" d="M96 320l0-320 320 0 0 320z" fill="#000000" fill-rule="nonzero" stroke="none" stroke-width="1" stroke-linecap="butt" stroke-linejoin="miter" stroke-miterlimit="10" stroke-dasharray="" stroke-dashoffset="0" font-family="none" font-weight="none" font-size="none" text-anchor="none" style="mix-blend-mode: normal" data-fill-palette-color="tertiary"></path></g><g transform="matrix(1,0,0,1,194.39162714138993,80)"><svg viewBox="0 0 123.21674571722015 160" height="160" width="123.21674571722015"><g><svg viewBox="0 0 253.05649288876995 328.6001316340937" height="160" width="123.21674571722015"><g transform="matrix(1,0,0,1,11.328246444384988,277.28502372042465)"><svg viewBox="0 0 230.39999999999998 51.31510791366906" height="51.31510791366906" width="230.39999999999998"><g id="textblocktransform"><svg viewBox="0 0 230.39999999999998 51.31510791366906" height="51.31510791366906" width="230.39999999999998" id="textblock"><g><svg viewBox="0 0 230.39999999999998 51.31510791366906" height="51.31510791366906" width="230.39999999999998"><g transform="matrix(1,0,0,1,0,0)"><svg width="230.39999999999998" viewBox="0.550000011920929 -36.599998474121094 166.7899932861328 37.14999771118164" height="51.31510791366906" data-palette-color="#ffffff"><path d="M27.45-29.45L27.45-29.45Q27.45-27.05 26.38-25.03 25.3-23 23.43-21.65 21.55-20.3 19.15-19.95L19.15-19.95Q22.4-19.4 24.53-17.1 26.65-14.8 26.65-11.45L26.65-11.45Q26.65-8.55 25.48-6.38 24.3-4.2 22.3-2.8 20.3-1.4 17.82-0.7 15.35 0 12.7 0L12.7 0 0.55 0 5.05-33.55 4.75-36.6 17.15-36.6Q18.95-36.6 20.75-36.3 22.55-36 24.08-35.23 25.6-34.45 26.53-33.05 27.45-31.65 27.45-29.45ZM20.4-27.95L20.4-27.95Q20.4-30 19.15-30.83 17.9-31.65 16.05-31.65L16.05-31.65 11.35-31.65 10.1-22.3 14.95-22.3Q17.35-22.3 18.88-23.98 20.4-25.65 20.4-27.95ZM19.85-11.95L19.85-11.95Q19.85-13.85 18.88-15.05 17.9-16.25 16.38-16.8 14.85-17.35 13.15-17.35L13.15-17.35 9.45-17.35 7.8-4.95 12.9-4.95Q16-4.95 17.93-6.93 19.85-8.9 19.85-11.95ZM32.55-36.6L40-36.6 36.75-12.15Q36.7-11.8 36.67-11.48 36.65-11.15 36.65-10.8L36.65-10.8Q36.65-7.75 38.47-5.98 40.3-4.2 43.35-4.2L43.35-4.2Q45.8-4.2 47.65-5.33 49.5-6.45 50.65-8.3 51.8-10.15 52.05-12.25L52.05-12.25 55.35-36.6 60.7-36.6 57.65-13.9Q57.05-9.5 55.32-6.25 53.6-3 50.37-1.23 47.15 0.55 42 0.55L42 0.55Q38.3 0.55 35.6-0.7 32.9-1.95 31.47-4.48 30.05-7 30.05-10.8L30.05-10.8Q30.05-11.6 30.1-12.35 30.15-13.1 30.25-13.9L30.25-13.9 32.9-33.6 32.55-36.6ZM88.7-29.45L88.7-29.45Q88.7-27.05 87.62-25.03 86.55-23 84.67-21.65 82.8-20.3 80.4-19.95L80.4-19.95Q83.65-19.4 85.77-17.1 87.9-14.8 87.9-11.45L87.9-11.45Q87.9-8.55 86.72-6.38 85.55-4.2 83.55-2.8 81.55-1.4 79.07-0.7 76.59 0 73.95 0L73.95 0 61.8 0 66.3-33.55 66-36.6 78.4-36.6Q80.2-36.6 82-36.3 83.8-36 85.32-35.23 86.84-34.45 87.77-33.05 88.7-31.65 88.7-29.45ZM81.65-27.95L81.65-27.95Q81.65-30 80.4-30.83 79.15-31.65 77.3-31.65L77.3-31.65 72.59-31.65 71.34-22.3 76.2-22.3Q78.59-22.3 80.12-23.98 81.65-25.65 81.65-27.95ZM81.09-11.95L81.09-11.95Q81.09-13.85 80.12-15.05 79.15-16.25 77.62-16.8 76.09-17.35 74.4-17.35L74.4-17.35 70.7-17.35 69.05-4.95 74.15-4.95Q77.25-4.95 79.17-6.93 81.09-8.9 81.09-11.95ZM116.99-29.45L116.99-29.45Q116.99-27.05 115.92-25.03 114.84-23 112.97-21.65 111.09-20.3 108.69-19.95L108.69-19.95Q111.94-19.4 114.07-17.1 116.19-14.8 116.19-11.45L116.19-11.45Q116.19-8.55 115.02-6.38 113.84-4.2 111.84-2.8 109.84-1.4 107.37-0.7 104.89 0 102.24 0L102.24 0 90.09 0 94.59-33.55 94.29-36.6 106.69-36.6Q108.49-36.6 110.29-36.3 112.09-36 113.62-35.23 115.14-34.45 116.07-33.05 116.99-31.65 116.99-29.45ZM109.94-27.95L109.94-27.95Q109.94-30 108.69-30.83 107.44-31.65 105.59-31.65L105.59-31.65 100.89-31.65 99.64-22.3 104.49-22.3Q106.89-22.3 108.42-23.98 109.94-25.65 109.94-27.95ZM109.39-11.95L109.39-11.95Q109.39-13.85 108.42-15.05 107.44-16.25 105.92-16.8 104.39-17.35 102.69-17.35L102.69-17.35 98.99-17.35 97.34-4.95 102.44-4.95Q105.54-4.95 107.47-6.93 109.39-8.9 109.39-11.95ZM122.64-36.6L129.84-36.6 125.64-4.95 139.24-4.95 138.59 0 118.39 0 122.89-33.55 122.64-36.6ZM145.79-33.55L145.44-36.6 167.34-36.6 166.69-31.65 152.04-31.65 150.64-21.3 161.84-21.3 161.19-16.35 149.99-16.35 148.49-4.95 163.09-4.95 162.44 0 141.29 0 145.79-33.55Z" opacity="1" transform="matrix(1,0,0,1,0,0)" fill="#ffffff" class="wordmark-text-0" data-fill-palette-color="quaternary" id="text-0"></path></svg></g></svg></g></svg></g></svg></g><g><svg viewBox="0 0 253.05649288876995 253.05649288876995" height="253.05649288876995" width="253.05649288876995"><g><svg></svg></g><g id="icon-0"><svg viewBox="0 0 253.05649288876995 253.05649288876995" height="253.05649288876995" width="253.05649288876995"><g><path d="M0 126.528c0-69.88 56.649-126.528 126.528-126.528 69.88 0 126.528 56.649 126.528 126.528 0 69.88-56.649 126.528-126.528 126.528-69.88 0-126.528-56.649-126.528-126.528zM126.528 248.429c67.324 0 121.901-54.577 121.901-121.901 0-67.324-54.577-121.901-121.901-121.9-67.324 0-121.901 54.577-121.9 121.9 0 67.324 54.577 121.901 121.9 121.901z" data-fill-palette-color="quaternary" fill="#ffffff" stroke="transparent"></path></g><g transform="matrix(1,0,0,1,50.399803103141025,50.399803103141025)"><svg viewBox="0 0 152.2568866824879 152.2568866824879" height="152.2568866824879" width="152.2568866824879"><g><svg xmlns="http://www.w3.org/2000/svg" data-name="Layer 1" viewBox="2 2 60 60" x="0" y="0" height="152.2568866824879" width="152.2568866824879" class="icon-s-0" data-fill-palette-color="quaternary" id="s-0"><path d="M37 19A12 12 0 1 0 25 31 12.013 12.013 0 0 0 37 19ZM25 9a10.009 10.009 0 0 1 9.838 8.259C32.4 16.045 27.744 14 24 14c-3.436 0-6.792 1.705-8.786 2.949A10.015 10.015 0 0 1 25 9Zm0 20a10 10 0 0 1-9.976-9.517C16.251 18.6 20.168 16 24 16c3.919 0 9.294 2.687 10.971 3.578A10 10 0 0 1 25 29Z" fill="#ffffff" data-fill-palette-color="quaternary"></path><path d="M32 37H26a3 3 0 0 0-3 3v3a3 3 0 0 0 3 3h6a3 3 0 0 0 3-3V40A3 3 0 0 0 32 37Zm1 6a1 1 0 0 1-1 1H26a1 1 0 0 1-1-1V40a1 1 0 0 1 1-1h6a1 1 0 0 1 1 1Z" fill="#ffffff" data-fill-palette-color="quaternary"></path><path d="M60 10A11.01 11.01 0 0 1 50 20.949V18.941A9.01 9.01 0 0 0 58 10V2H56v8a7.006 7.006 0 0 1-6 6.92V15a3 3 0 0 0-3-3H44.41C41.7 6.485 35.7 3 28 3 17.4 3 10 9.58 10 19a15.028 15.028 0 0 0 6.151 12.433L7.457 33.209a4.793 4.793 0 0 0-3.939 4.756c0.021 2.99 2.017 4.7 5.533 4.7h0l9.63-0.539A17.1 17.1 0 0 0 20.1 45.578l2.966 5.438a16.419 16.419 0 0 0 2.8 3.742l5.193 5.192a7.012 7.012 0 0 0 8.422 1.128l2.615-1.5a6.974 6.974 0 0 0 5.955 0.359l5.485-2.194A3.324 3.324 0 0 0 60 56.675V50a2 2 0 0 0-2-2H54v0.025a0.964 0.964 0 0 0-0.24 0l-5.452 1.348-6.956-6.958a4.6 4.6 0 0 1-0.865-1.2c-0.036-0.072-0.063-0.148-0.095-0.222H47a3 3 0 0 0 3-3V35.185l4.061-0.962a4.8 4.8 0 0 0-1.723-9.446L50 25.2V22.949A13.008 13.008 0 0 0 62 10V2H60ZM12 19c0-8.243 6.579-14 16-14s16 5.757 16 14S37.421 33 28 33 12 27.243 12 19ZM40 35.5V31.313a15.137 15.137 0 0 0 2.817-2.767l1.525-0.278L41.261 35.2ZM9 40.671c-3.1 0-3.475-1.552-3.482-2.719a2.8 2.8 0 0 1 2.319-2.779l4.656-0.951 3.041 6.083Zm8.71-0.488l-3.188-6.375L18 33.1v4.267a17.119 17.119 0 0 0 0.237 2.789ZM58 56.675a1.325 1.325 0 0 1-2.581 0.42L55 55.837V50h3ZM49.293 53.19l1.414-1.414-0.747-0.747L53 50.277v5.529l-5.7 2.279a5 5 0 0 1-5.394-1.106l-7.2-7.2L33.293 51.19l7.074 7.074-1.885 1.077a5.009 5.009 0 0 1-6.015-0.8l-5.193-5.192a14.481 14.481 0 0 1-2.458-3.286L21.851 44.62A15.184 15.184 0 0 1 20 37.364V33.537A21.611 21.611 0 0 0 28 35a20.668 20.668 0 0 0 10-2.4v6.555a6.607 6.607 0 0 0 1.938 4.676ZM48 38a1 1 0 0 1-1 1H40V37.554l8-1.9Zm4.7-11.255a2.8 2.8 0 1 1 0.953 5.521L43.708 34.62l3.016-6.786Zm-8.412-0.5A15.675 15.675 0 0 0 46 19a16.256 16.256 0 0 0-0.763-5H47a1 1 0 0 1 1 1V25.568Z" fill="#ffffff" data-fill-palette-color="quaternary"></path><rect x="39" y="17" width="2" height="5" fill="#ffffff" data-fill-palette-color="quaternary"></rect><rect x="4" y="2" width="2" height="2" fill="#ffffff" data-fill-palette-color="quaternary"></rect><rect x="2" y="4" width="2" height="2" fill="#ffffff" data-fill-palette-color="quaternary"></rect><rect x="6" y="4" width="2" height="2" fill="#ffffff" data-fill-palette-color="quaternary"></rect><rect x="4" y="6" width="2" height="2" fill="#ffffff" data-fill-palette-color="quaternary"></rect><rect x="2" y="21" width="2" height="2" fill="#ffffff" data-fill-palette-color="quaternary"></rect><rect x="58" y="37" width="2" height="2" fill="#ffffff" data-fill-palette-color="quaternary"></rect><rect x="56" y="39" width="2" height="2" fill="#ffffff" data-fill-palette-color="quaternary"></rect><rect x="60" y="39" width="2" height="2" fill="#ffffff" data-fill-palette-color="quaternary"></rect><rect x="58" y="41" width="2" height="2" fill="#ffffff" data-fill-palette-color="quaternary"></rect><rect x="14" y="49" width="2" height="2" fill="#ffffff" data-fill-palette-color="quaternary"></rect><rect x="12" y="51" width="2" height="2" fill="#ffffff" data-fill-palette-color="quaternary"></rect><rect x="16" y="51" width="2" height="2" fill="#ffffff" data-fill-palette-color="quaternary"></rect><rect x="14" y="53" width="2" height="2" fill="#ffffff" data-fill-palette-color="quaternary"></rect><rect x="6" y="57" width="2" height="2" fill="#ffffff" data-fill-palette-color="quaternary"></rect><rect x="21" y="60" width="2" height="2" fill="#ffffff" data-fill-palette-color="quaternary"></rect><rect x="2" y="44" width="2" height="2" fill="#ffffff" data-fill-palette-color="quaternary"></rect></svg></g></svg></g></svg></g></svg></g><g></g></svg></g></svg></g></svg></g><defs></defs></svg><rect width="512" height="320" fill="none" stroke="none" visibility="hidden"></rect></g></svg></g></svg>