<?xml version="1.0" standalone="no"?>
<!DOCTYPE svg PUBLIC "-//W3C//DTD SVG 20010904//EN"
 "http://www.w3.org/TR/2001/REC-SVG-20010904/DTD/svg10.dtd">
<svg version="1.0" xmlns="http://www.w3.org/2000/svg"
 width="1280.000000pt" height="838.000000pt" viewBox="0 0 1280.000000 838.000000"
 preserveAspectRatio="xMidYMid meet">
<metadata>
Created by potrace 1.15, written by Peter Selinger 2001-2017
</metadata>
<g transform="translate(0.000000,838.000000) scale(0.100000,-0.100000)"
fill="#000000" stroke="none">
<path d="M855 8359 c-81 -27 -219 -96 -240 -119 -17 -19 -13 -19 245 -22 144
-2 263 -2 264 0 2 1 1 14 -2 27 -5 30 -149 135 -184 135 -13 -1 -50 -10 -83
-21z"/>
<path d="M10304 8235 c-48 -83 -82 -178 -85 -237 -1 -32 0 -60 3 -63 11 -12
380 63 398 81 11 11 -47 147 -91 216 l-31 48 -84 0 -83 0 -27 -45z"/>
<path d="M539 8154 c-7 -16 -12 -51 -12 -79 0 -141 -19 -703 -27 -788 -5 -54
-13 -104 -19 -111 -7 -9 -12 -89 -14 -222 l-2 -209 370 -7 c204 -3 501 -11
660 -17 555 -21 2191 -49 4385 -76 674 -8 1328 -17 1453 -20 l228 -6 -6 68
c-10 102 -23 174 -60 323 -48 193 -67 294 -63 337 l3 38 51 3 51 3 13 -78 c7
-43 29 -148 50 -233 51 -206 69 -301 78 -396 l7 -79 38 -3 37 -3 0 54 c0 73
-23 199 -70 387 -41 162 -69 325 -57 336 3 3 26 9 50 11 52 6 47 14 72 -117 9
-47 32 -146 50 -220 55 -219 65 -268 72 -361 l6 -87 32 -6 c38 -7 61 0 69 21
10 24 -12 176 -44 313 -16 69 -40 172 -54 230 -13 58 -27 129 -31 157 -7 51
-6 53 20 63 32 12 72 13 79 2 2 -4 16 -64 30 -132 14 -69 44 -197 66 -284 22
-88 45 -206 52 -263 12 -102 13 -103 39 -103 39 0 89 11 84 19 -2 4 -13 63
-25 132 -12 68 -39 194 -60 280 -45 178 -70 322 -60 339 4 6 25 14 48 17 49 7
54 -2 71 -102 7 -38 30 -140 51 -226 22 -86 47 -198 55 -250 24 -143 26 -145
91 -133 29 5 34 10 34 35 0 34 -33 191 -84 398 -20 79 -39 172 -42 206 -6 59
-5 62 17 68 44 12 77 8 83 -10 3 -10 13 -56 21 -103 9 -47 32 -146 50 -220 19
-74 43 -186 54 -249 12 -63 23 -116 25 -119 6 -5 95 -6 101 0 8 7 -21 157 -69
356 -57 235 -72 320 -58 334 14 14 88 22 96 10 3 -6 13 -48 22 -94 8 -45 31
-145 50 -221 19 -76 43 -191 54 -255 11 -64 24 -120 29 -125 10 -10 91 1 91
13 0 19 -52 258 -83 385 -45 179 -61 275 -49 287 5 5 28 12 50 15 46 6 55 -4
66 -77 4 -25 29 -137 56 -250 27 -113 54 -242 61 -287 l11 -83 55 0 55 0 -7
57 c-4 31 -31 156 -61 277 -30 122 -57 251 -60 287 -6 63 -6 66 17 72 44 12
77 8 83 -10 2 -10 12 -56 21 -103 9 -47 34 -156 56 -243 21 -87 44 -196 50
-242 7 -46 15 -89 19 -95 8 -12 105 -19 116 -8 8 9 -21 157 -66 339 -50 198
-75 338 -62 351 14 14 88 22 96 10 3 -6 13 -48 22 -94 8 -45 33 -153 54 -238
21 -85 48 -211 60 -280 12 -69 28 -135 35 -147 18 -28 55 -40 66 -22 23 37 0
215 -51 384 -28 96 -61 247 -75 346 l-6 47 51 7 c28 4 53 5 56 3 2 -3 11 -45
19 -94 9 -49 36 -166 60 -260 49 -192 75 -327 75 -396 l0 -46 103 -6 c109 -6
1812 -36 2060 -36 142 0 147 1 147 21 0 28 -85 285 -127 383 -20 48 -45 90
-62 103 -15 12 -54 65 -85 117 -122 205 -255 362 -516 613 -246 236 -205 213
-375 213 -121 0 -145 -3 -153 -16 -11 -20 -112 -48 -263 -74 -190 -33 -219
-27 -219 40 0 19 -4 41 -9 49 -10 15 -277 22 -1476 41 -1173 17 -1384 17
-1395 0 -14 -22 -12 -46 5 -64 18 -17 20 -105 5 -245 -15 -142 -25 -169 -81
-223 l-49 -48 -611 0 -611 0 -87 54 c-58 36 -101 56 -131 60 -56 7 -835 21
-2240 41 -1142 16 -1679 30 -1744 45 -21 4 -63 25 -92 45 -82 57 -285 272
-317 336 -15 30 -37 67 -51 84 l-24 30 -153 7 c-85 3 -245 10 -356 14 l-202 7
-12 -29z m9946 -1210 c61 -29 71 -112 18 -154 -46 -36 -109 -20 -138 35 -23
42 -10 82 35 113 39 26 42 27 85 6z"/>
<path d="M84 8030 c-50 -20 -79 -186 -78 -435 1 -279 27 -378 105 -398 19 -5
102 -6 186 -2 l151 7 6 87 c3 47 11 232 17 410 9 270 9 325 -2 332 -18 11
-357 10 -385 -1z"/>
<path d="M1439 7982 c21 -26 86 -92 143 -148 108 -106 130 -118 236 -134 31
-5 658 -18 1392 -29 734 -11 1611 -25 1949 -31 l613 -11 85 -51 85 -52 111 -7
c62 -4 336 -8 609 -8 l496 -1 34 40 c49 56 58 95 65 263 l6 147 -334 0 c-184
0 -633 5 -999 10 -366 5 -987 14 -1380 20 -393 5 -881 14 -1085 20 -203 5
-752 11 -1218 14 l-848 5 40 -47z"/>
<path d="M11620 7850 c-158 -63 -226 -67 -345 -21 -43 17 -81 28 -84 26 -2 -3
72 -82 165 -177 186 -190 301 -335 390 -493 34 -60 62 -99 65 -92 17 29 129
401 144 474 15 75 15 87 1 135 -20 69 -67 125 -130 154 -67 31 -115 30 -206
-6z m187 -85 c53 -35 71 -106 45 -171 -38 -91 -189 -82 -228 13 -48 114 81
225 183 158z"/>
<path d="M485 6679 c-4 -5 -7 -137 -8 -292 -2 -344 3 -368 73 -379 25 -4 233
-11 462 -14 l417 -7 11 -56 c17 -83 20 -90 40 -101 11 -6 365 -16 897 -25
1176 -20 1680 -33 1804 -46 489 -50 790 -193 1012 -483 104 -135 140 -197 201
-353 49 -122 56 -168 57 -362 1 -317 13 -539 29 -555 23 -22 144 -67 472 -176
313 -104 553 -169 728 -196 180 -27 499 -30 760 -5 245 23 321 34 540 80 279
59 438 49 580 -38 8 -5 40 -19 70 -32 100 -44 236 -203 291 -340 11 -30 36
-119 54 -199 18 -80 72 -289 118 -465 120 -446 254 -984 271 -1085 32 -190 39
-328 33 -695 -4 -198 -4 -370 -1 -382 l6 -23 1239 0 1239 0 0 -32 0 -31 -1226
7 c-674 4 -1238 9 -1254 12 -26 6 -28 4 -32 -36 -6 -71 9 -283 23 -313 19 -42
57 -57 141 -57 139 0 841 47 1658 110 504 40 585 48 648 66 52 15 57 20 77 79
5 16 13 6 41 -51 87 -182 276 -249 460 -162 99 46 141 120 153 267 l6 75 42 9
c23 4 46 13 51 20 13 16 47 166 69 307 14 88 18 170 18 350 -1 360 -34 534
-169 903 -101 274 -389 1037 -526 1392 -175 454 -369 970 -406 1078 -98 290
-97 461 7 677 93 196 230 342 395 421 136 66 226 88 419 100 88 5 175 15 193
20 66 21 132 103 132 164 0 36 -31 93 -75 137 -29 29 -47 38 -88 43 -75 10
-163 33 -232 62 -147 62 -322 232 -386 378 -16 37 -25 45 -52 49 -41 7 -1034
24 -1824 33 l-613 6 0 -132 c0 -140 -13 -191 -48 -191 -9 -1 -131 -5 -269 -9
-296 -11 -300 -12 -409 -118 l-67 -65 -146 -8 c-286 -16 -929 -32 -1081 -27
-177 5 -216 14 -270 63 -55 50 -75 109 -75 220 1 82 4 97 33 156 33 67 65 99
136 135 l39 20 -479 6 c-264 3 -486 8 -495 12 -14 5 -16 -13 -16 -157 -1 -178
-18 -269 -66 -365 -49 -94 -147 -157 -305 -194 -99 -24 -107 -29 -115 -68 -20
-97 -156 -153 -238 -98 -87 58 -104 148 -45 235 32 46 34 53 25 86 -6 21 -9
119 -7 226 l3 188 31 44 c20 27 51 53 84 69 l52 27 -79 6 c-43 4 -586 13
-1208 21 -1265 17 -2646 41 -2892 51 l-163 6 0 -211 0 -211 103 -1 c56 0 665
-4 1352 -8 l1250 -9 105 -37 c232 -82 501 -230 758 -418 l133 -97 692 -8 c381
-4 748 -5 817 -2 l125 5 10 305 c11 317 17 350 55 350 24 0 24 -6 5 -85 -11
-44 -15 -127 -15 -316 0 -240 -1 -258 -20 -281 -15 -20 -33 -27 -73 -32 -30
-4 -406 -2 -837 4 l-783 12 -66 52 c-227 182 -532 360 -776 452 l-100 37 -325
8 c-179 4 -796 8 -1372 8 -834 1 -1047 -2 -1043 -11 2 -7 6 -50 10 -96 l7 -83
-29 3 -28 3 -5 327 c-3 179 -9 330 -13 335 -5 4 -133 11 -285 15 -440 10 -620
9 -627 -3z m9603 -781 c45 -23 78 -62 124 -147 l17 -31 89 0 c84 0 91 -2 133
-32 24 -17 64 -52 89 -76 24 -25 112 -102 195 -171 168 -141 253 -223 338
-327 l57 -71 0 -140 c0 -82 6 -177 15 -229 23 -128 129 -436 235 -684 51 -118
139 -334 195 -480 56 -146 178 -447 270 -670 460 -1112 569 -1481 537 -1834
-6 -65 -15 -123 -22 -130 -14 -14 -332 -22 -1320 -35 -687 -8 -746 -8 -762 7
-22 22 -53 132 -243 851 -495 1881 -547 2085 -537 2111 6 14 26 61 46 105 66
149 69 294 10 424 -35 78 -84 133 -177 199 l-81 58 -123 494 c-68 272 -126
520 -130 551 l-6 56 39 6 c22 4 170 7 331 7 l292 0 26 53 c13 29 39 70 57 91
66 76 205 96 306 44z m-2627 -46 c27 -24 33 -37 37 -85 4 -54 3 -58 -30 -91
-81 -81 -197 -49 -214 59 -8 55 1 83 38 117 25 23 39 28 84 28 45 0 59 -5 85
-28z m-460 -391 c136 -10 185 -26 194 -64 37 -166 46 -233 46 -352 0 -140 -9
-203 -43 -305 -73 -225 -230 -409 -469 -551 -81 -47 -118 -75 -123 -91 -11
-42 -7 -78 11 -85 36 -14 214 55 366 143 156 91 325 287 409 474 56 127 75
152 138 192 54 33 59 40 65 81 6 40 -19 300 -31 319 -2 3 24 28 58 54 35 26
91 74 124 107 l62 59 83 -16 c119 -24 247 -64 296 -92 56 -32 241 -216 287
-284 109 -163 151 -419 100 -614 -44 -170 -169 -350 -311 -447 -133 -92 -440
-182 -783 -231 -149 -21 -584 -17 -735 6 -138 21 -346 70 -490 116 -222 71
-392 196 -511 380 -90 139 -117 243 -117 445 1 147 17 217 80 337 53 102 230
298 268 298 6 0 69 22 138 50 112 44 176 60 282 73 61 8 484 6 606 -2z m2235
-1190 c127 -58 115 -246 -18 -282 -110 -29 -217 72 -189 179 18 65 83 118 151
121 8 0 34 -8 56 -18z m3161 -3894 c67 -60 45 -197 -42 -263 -102 -77 -255 -2
-255 125 0 50 26 117 55 141 41 34 204 33 242 -3z"/>
<path d="M9398 5660 c-163 -3 -300 -9 -304 -13 -8 -8 109 -491 210 -867 36
-134 48 -167 67 -180 128 -83 213 -181 245 -283 9 -28 19 -100 21 -158 6 -120
-5 -172 -63 -299 l-35 -75 75 -285 c41 -157 140 -539 221 -850 383 -1473 455
-1744 467 -1753 14 -9 1781 -1 1930 10 108 7 103 -3 103 218 -1 183 -18 282
-91 525 -79 266 -189 557 -449 1185 -86 209 -201 493 -254 630 -54 138 -146
365 -204 507 -111 266 -218 571 -236 671 -6 32 -13 120 -16 195 -9 198 -7 191
-89 290 -86 102 -109 124 -281 267 -71 60 -169 144 -217 187 l-86 78 -95 0
-94 0 -6 -38 c-13 -76 -96 -165 -181 -192 -48 -15 -141 -8 -185 14 -52 27
-107 90 -126 142 -9 27 -20 56 -23 64 -6 13 -46 14 -304 10z m1240 -1321 c208
-50 391 -232 447 -444 20 -76 21 -223 1 -297 -56 -210 -236 -389 -443 -443
-73 -19 -232 -19 -303 0 -223 59 -401 251 -446 484 -35 174 15 353 142 508 73
88 235 181 355 202 62 11 178 6 247 -10z m502 -2703 c139 -71 169 -253 61
-369 -129 -139 -371 -58 -397 134 -24 178 175 318 336 235z"/>
<path d="M8405 6621 c-73 -5 -85 -10 -125 -41 l-44 -35 -301 0 c-324 -1 -531
-15 -592 -40 -91 -38 -128 -110 -128 -250 0 -119 19 -159 95 -197 52 -27 58
-28 219 -28 91 0 391 5 666 11 l500 12 75 69 c41 37 95 77 118 89 51 23 188
38 367 39 66 0 144 3 173 7 l53 6 -3 146 -3 146 -70 35 -70 35 -425 1 c-234 1
-461 -2 -505 -5z m925 -217 l0 -24 -119 0 c-65 0 -132 -3 -148 -6 -23 -5 -32
-2 -37 12 -4 9 -2 22 4 28 10 10 273 26 293 18 4 -2 7 -14 7 -28z"/>
<path d="M5930 6550 c-239 -22 -272 -73 -255 -393 l7 -135 51 -6 c65 -9 97
-26 138 -75 l34 -39 92 22 c161 40 250 101 295 203 20 46 37 207 38 361 l0 72
-157 -1 c-87 -1 -196 -5 -243 -9z"/>
</g>
</svg>
